<?xml version="1.0" encoding="UTF-8"?>
<svg version="1.1" xmlns="http://www.w3.org/2000/svg" width="677" height="369">
<path d="M0 0 C223.41 0 446.82 0 677 0 C677 121.77 677 243.54 677 369 C453.59 369 230.18 369 0 369 C0 247.23 0 125.46 0 0 Z " fill="#151515" transform="translate(0,0)"/>
<path d="M0 0 C11.32745532 8.31709241 18.19663163 19.94297043 20.65356445 33.703125 C23.67434366 53.74612216 22.03195513 73.24333833 10.48046875 90.43359375 C0.20182334 103.13861085 -13.5206752 108.61750739 -29.51953125 110.43359375 C-47.86008818 111.55684528 -63.80548552 108.76648749 -78.203125 96.64453125 C-87.30278645 87.95918828 -93.92885743 74.16382463 -94.6965332 61.51782227 C-95.09663029 40.59003498 -94.96689473 22.17454577 -79.64453125 6.05859375 C-58.87554389 -13.04887462 -23.94154375 -14.88458766 0 0 Z " fill="#FCFCFC" transform="translate(490.51953125,151.56640625)"/>
<path d="M0 0 C9.24 0 18.48 0 28 0 C32.152368 16.97108962 36.00350769 33.97295437 39.57958984 51.07421875 C40.11821834 53.64799668 40.65866457 56.22130053 41.20263672 58.79394531 C42.00036264 62.5676754 42.79389847 66.34226019 43.5859375 70.1171875 C43.82960052 71.2700827 44.07326355 72.42297791 44.3243103 73.61080933 C44.54519318 74.6710733 44.76607605 75.73133728 44.99365234 76.82373047 C45.18873383 77.75426239 45.38381531 78.68479431 45.58480835 79.64352417 C46 82 46 82 46 85 C46.66 85 47.32 85 48 85 C48.02940674 84.44997314 48.05881348 83.89994629 48.08911133 83.33325195 C48.68537833 75.37683938 50.63764472 67.87448648 52.6875 60.1875 C53.05094638 58.8024348 53.413979 57.41726097 53.77661133 56.03198242 C56.03759643 47.43473317 58.41610464 38.87404963 60.90966797 30.34130859 C62.94247683 23.34502304 64.72831866 16.29724077 66.44018555 9.21606445 C67.90419064 3.19161872 67.90419064 3.19161872 69 1 C79.89 1 90.78 1 102 1 C103.03125 4.980625 104.0625 8.96125 105.125 13.0625 C106.10138888 16.82756134 107.07824539 20.59250101 108.05517578 24.35742188 C108.64517319 26.63203722 109.23476094 28.90675891 109.82373047 31.18164062 C112.77348448 42.57457197 115.77125687 53.95122237 118.90844727 65.29418945 C120.71107855 71.8373306 122.37655586 78.41022477 124 85 C124.23074219 83.90574707 124.46148438 82.81149414 124.69921875 81.68408203 C129.58534917 58.54651326 134.64275295 35.46694565 140.18139648 12.47631836 C141.15865507 8.32624826 142.07509959 4.16205183 143 0 C150.59 0 158.18 0 166 0 C166.87679847 17.53596941 163.73409124 32.17639233 159 49 C158.60259938 50.48196059 158.20864469 51.96485607 157.8203125 53.44921875 C157.20885619 55.78639678 156.58836048 58.12123663 155.95703125 60.453125 C155.02075559 63.92307725 154.10792782 67.39843115 153.19946289 70.87573242 C151.1580316 78.68543949 149.0625977 86.47712798 146.87524414 94.24731445 C144.84439851 101.48083484 142.9366972 108.7373855 141 116 C130.44 116 119.88 116 109 116 C107.29254819 111.73137047 106.05806387 107.60581122 104.9765625 103.1640625 C104.69539078 102.02945084 104.69539078 102.02945084 104.40853882 100.87191772 C103.81065706 98.4570958 103.21755459 96.0411341 102.625 93.625 C101.84824522 90.47088527 101.06945531 87.31727903 100.2890625 84.1640625 C100.09781799 83.39130981 99.90657349 82.61855713 99.70953369 81.8223877 C97.32921759 72.24510399 94.82857215 62.70580437 92 53.25 C89.49768719 44.61106292 87.76626783 35.81254909 86 27 C84.04174132 29.93738802 83.49495022 31.58469859 82.7734375 34.9609375 C82.43892578 36.48195068 82.43892578 36.48195068 82.09765625 38.03369141 C81.85917969 39.13632324 81.62070312 40.23895508 81.375 41.375 C78.9068091 52.44309976 76.04370136 63.35417686 72.97558594 74.26953125 C70.45866946 83.25194347 68.12064459 92.26610029 65.90234375 101.32666016 C65.67933594 102.23722168 65.45632813 103.1477832 65.2265625 104.0859375 C65.03658691 104.8701709 64.84661133 105.6544043 64.65087891 106.46240234 C63.83106009 109.65865018 62.90650076 112.82724733 62 116 C51.11 116 40.22 116 29 116 C27.63875 110.2765625 27.63875 110.2765625 26.25 104.4375 C24.30446853 96.30566835 22.30642358 88.20141022 20.11328125 80.1328125 C18.6128162 74.60063862 17.1863731 69.04908228 15.75 63.5 C15.45448242 62.35974365 15.15896484 61.2194873 14.85449219 60.04467773 C13.37669325 54.33760003 11.90361618 48.62934339 10.43930054 42.91879272 C9.73572548 40.1753004 9.03087 37.43213751 8.3260498 34.68896484 C7.82954908 32.75394561 7.33514727 30.81838819 6.84082031 28.8828125 C4.94891702 21.51825189 2.93006604 14.21823212 0.7409668 6.93676758 C0 4 0 4 0 0 Z " fill="#FCFCFC" transform="translate(511,144)"/>
<path d="M0 0 C8.69138862 7.27351379 13.09706252 15.44171872 14.84375 26.54296875 C15.12947982 30.99525602 15.14441166 35.43800699 15.15234375 39.8984375 C15.17748538 42.48502847 15.20288365 45.07161696 15.22851562 47.65820312 C15.25931247 51.70691909 15.28159502 55.75565434 15.30004883 59.80444336 C15.31901384 63.73178744 15.36109678 67.65876405 15.40234375 71.5859375 C15.40251747 73.4001545 15.40251747 73.4001545 15.4026947 75.25102234 C15.43678861 83.38709155 15.43678861 83.38709155 18.84375 90.54296875 C21.36850462 91.80534606 23.15575466 91.64153279 25.96875 91.60546875 C27.5775 91.58484375 29.18625 91.56421875 30.84375 91.54296875 C30.84375 97.15296875 30.84375 102.76296875 30.84375 108.54296875 C20.32567977 111.17248631 6.65341677 113.17444412 -3.15625 107.54296875 C-6.85155454 104.17225177 -9.89635806 100.45654732 -11.15625 95.54296875 C-11.28125 92.23046875 -11.28125 92.23046875 -11.15625 89.54296875 C-13.36760848 91.63183216 -15.0292511 93.7713286 -16.71875 96.29296875 C-22.38503142 103.94667723 -31.07699157 109.23175615 -40.34375 111.23046875 C-52.71705095 112.24467375 -64.80561741 111.96798113 -75.1875 104.33203125 C-82.26848429 97.89732727 -85.58906857 89.56489504 -86.47265625 80.18359375 C-86.82976571 69.6315851 -84.66105472 60.61294911 -77.91796875 52.32421875 C-68.3523638 42.65256496 -55.26682651 39.53305428 -42.04327393 39.35400391 C-38.35123194 39.3432535 -34.66051028 39.37566775 -30.96875 39.41796875 C-29.42904232 39.42802478 -27.88932824 39.43714596 -26.34960938 39.4453125 C-22.61835413 39.46710407 -18.88734446 39.50148733 -15.15625 39.54296875 C-15.29143439 37.48140686 -15.43337911 35.42028763 -15.578125 33.359375 C-15.65643555 32.21154541 -15.73474609 31.06371582 -15.81542969 29.88110352 C-16.41783148 23.98093178 -17.41065027 19.24599287 -21.71875 15.04296875 C-27.28075612 11.62019575 -32.73162296 11.98804354 -39.15625 12.54296875 C-44.22094041 14.81334721 -46.16823691 17.41598762 -48.15625 22.54296875 C-48.51089798 24.20523037 -48.84797316 25.87148609 -49.15625 27.54296875 C-59.5296999 27.7079176 -69.8073426 27.19340513 -80.15625 26.54296875 C-79.85514565 17.2087339 -76.23339699 10.69437741 -70.03125 3.79296875 C-53.34313191 -11.75565229 -18.56379971 -12.78227734 0 0 Z " fill="#FCFCFC" transform="translate(200.15625,150.45703125)"/>
<path d="M0 0 C9.9 0 19.8 0 30 0 C30.33 29.37 30.66 58.74 31 89 C36.80068924 82.61924183 42.33485377 76.42299814 47.71875 69.75 C50.84959891 65.97582598 54.17526453 62.39572209 57.49609375 58.7890625 C60.89481329 55.0032813 64.0924253 51.07864278 67.28515625 47.1171875 C69 45 69 45 70 44 C72.3756852 43.9116033 74.72208674 43.88469695 77.09765625 43.90234375 C78.16094398 43.90446617 78.16094398 43.90446617 79.24571228 43.90663147 C81.51801712 43.91224557 83.79022475 43.92480037 86.0625 43.9375 C87.59960796 43.94251319 89.13671745 43.94707641 90.67382812 43.95117188 C94.44925642 43.96221958 98.22461171 43.97949359 102 44 C99.72622089 47.5168198 97.47129219 50.77866175 94.57421875 53.8046875 C93.94193359 54.47113281 93.30964844 55.13757813 92.65820312 55.82421875 C91.68270508 56.83935547 91.68270508 56.83935547 90.6875 57.875 C86.237489 62.53606096 81.87868871 67.24116058 77.65844727 72.11181641 C76.11960501 73.86382671 74.54792312 75.57201358 72.9453125 77.265625 C72.47609375 77.76320313 72.006875 78.26078125 71.5234375 78.7734375 C70.57225275 79.77776106 69.61632797 80.77761195 68.65625 81.7734375 C65.27166091 85.38088765 65.27166091 85.38088765 64 90 C64.84341608 92.13729023 64.84341608 92.13729023 66.2890625 94.24609375 C66.81177734 95.07238281 67.33449219 95.89867187 67.87304688 96.75 C68.45119141 97.636875 69.02933594 98.52375 69.625 99.4375 C70.83626607 101.34223901 72.04719437 103.24719285 73.2578125 105.15234375 C73.88204102 106.1254248 74.50626953 107.09850586 75.14941406 108.10107422 C77.98150044 112.53751138 80.73948387 117.0188186 83.5 121.5 C86.85750001 126.93185289 90.22210416 132.35912127 93.6015625 137.77734375 C94.19130859 138.72480469 94.78105469 139.67226562 95.38867188 140.6484375 C96.51543993 142.45836414 97.64422778 144.2670355 98.77539062 146.07421875 C99.28521484 146.8940625 99.79503906 147.71390625 100.3203125 148.55859375 C100.76648926 149.27329834 101.21266602 149.98800293 101.67236328 150.72436523 C103.2465194 153.4225464 104.62703928 156.19496427 106 159 C82.73687737 162.87958826 82.73687737 162.87958826 73 159 C65.27970874 152.63440842 61.62055199 142.88777958 57.75244141 133.88818359 C55.1819793 128.00996127 51.79942766 122.64306673 48.4375 117.1875 C47.37008807 115.3914634 46.30588399 113.59351321 45.24609375 111.79296875 C44.49747676 110.52859791 43.74881383 109.26425427 43 108 C38.49664265 109.50111912 34.20166538 111.42649337 31 115 C29.97741734 118.36631785 30.04441995 121.61538723 30.09765625 125.11328125 C30.07921913 126.56760811 30.07921913 126.56760811 30.06040955 128.05131531 C30.02869009 131.13914784 30.04495371 134.22459302 30.0625 137.3125 C30.04939054 139.4095274 30.03315048 141.50653772 30.01367188 143.60351562 C29.96694728 148.73712622 29.98513976 153.86472403 30 159 C20.1 159 10.2 159 0 159 C0 106.53 0 54.06 0 0 Z " fill="#FCFCFC" transform="translate(11,101)"/>
<path d="M0 0 C1.08796875 -0.00128906 2.1759375 -0.00257812 3.296875 -0.00390625 C4.42867188 -0.00003906 5.56046875 0.00382812 6.7265625 0.0078125 C8.41265625 0.00201172 8.41265625 0.00201172 10.1328125 -0.00390625 C11.76863281 -0.00197266 11.76863281 -0.00197266 13.4375 0 C14.4279834 0.00112793 15.4184668 0.00225586 16.43896484 0.00341797 C19.3515625 0.1328125 19.3515625 0.1328125 25.3515625 1.1328125 C25.3515625 7.4028125 25.3515625 13.6728125 25.3515625 20.1328125 C17.6640625 20.3203125 17.6640625 20.3203125 15.27075195 20.34057617 C11.23241715 20.51877555 9.67156983 20.87706027 6.39453125 23.49609375 C3.17660553 27.64924836 3.11851468 31.19027137 2.7890625 36.3203125 C2.6446875 38.5684375 2.5003125 40.8165625 2.3515625 43.1328125 C9.9415625 43.1328125 17.5315625 43.1328125 25.3515625 43.1328125 C25.3515625 49.7328125 25.3515625 56.3328125 25.3515625 63.1328125 C17.7615625 63.1328125 10.1715625 63.1328125 2.3515625 63.1328125 C2.3515625 94.4828125 2.3515625 125.8328125 2.3515625 158.1328125 C-7.5484375 158.1328125 -17.4484375 158.1328125 -27.6484375 158.1328125 C-27.6484375 126.7828125 -27.6484375 95.4328125 -27.6484375 63.1328125 C-32.9284375 63.1328125 -38.2084375 63.1328125 -43.6484375 63.1328125 C-43.6484375 56.2028125 -43.6484375 49.2728125 -43.6484375 42.1328125 C-38.0384375 42.1328125 -32.4284375 42.1328125 -26.6484375 42.1328125 C-26.68324219 40.7096875 -26.71804688 39.2865625 -26.75390625 37.8203125 C-26.78206201 35.92449105 -26.80936024 34.02865673 -26.8359375 32.1328125 C-26.86107422 31.19824219 -26.88621094 30.26367188 -26.91210938 29.30078125 C-27.00085551 20.8403163 -25.26195639 13.75388606 -19.6484375 7.1328125 C-13.15082815 2.50096076 -7.99466859 0.00912485 0 0 Z " fill="#FCFCFC" transform="translate(319.6484375,101.8671875)"/>
<path d="M0 0 C9.9 0 19.8 0 30 0 C30 52.47 30 104.94 30 159 C20.1 159 10.2 159 0 159 C0 106.53 0 54.06 0 0 Z " fill="#FCFCFC" transform="translate(351,101)"/>
<path d="M0 0 C9.71633904 9.9789428 10.76040667 23.40689483 10.66821289 36.64428711 C10.39429153 47.78676593 8.25088491 58.33919623 1.0625 67.125 C-6.1618883 73.03586316 -12.63674305 74.25182424 -21.8984375 73.8125 C-28.17910442 73.08730959 -31.37758828 71.12034335 -35.38671875 66.35546875 C-44.8136247 53.32214358 -45.22208584 36.05960239 -43.19140625 20.59765625 C-41.15347501 10.73038463 -37.26162959 3.0168515 -28.6875 -2.625 C-18.95701465 -6.7417438 -8.82802907 -5.33787804 0 0 Z " fill="#181818" transform="translate(470.6875,167.625)"/>
<path d="M0 0 C9.9 0 19.8 0 30 0 C30 38.28 30 76.56 30 116 C20.1 116 10.2 116 0 116 C0 77.72 0 39.44 0 0 Z " fill="#FAFAFA" transform="translate(236,144)"/>
<path d="M0 0 C1.73056641 0.00966797 1.73056641 0.00966797 3.49609375 0.01953125 C4.68589844 0.03628906 5.87570313 0.05304688 7.1015625 0.0703125 C8.31457031 0.07933594 9.52757812 0.08835938 10.77734375 0.09765625 C13.76062023 0.12114662 16.74348844 0.15399568 19.7265625 0.1953125 C20.02442543 10.56959838 18.25208366 19.25228685 11.47265625 27.46875 C6.4808427 32.40472671 1.55111176 34.49012926 -5.4609375 34.8203125 C-9.23793336 34.65191141 -11.87246777 34.33832709 -14.8984375 32.0078125 C-19.66336855 26.365131 -19.88337796 20.86056345 -19.78515625 13.66015625 C-19.11453731 9.11940052 -17.54515426 6.87306742 -14.390625 3.6484375 C-9.89127417 0.56032217 -5.35744877 -0.05304405 0 0 Z " fill="#171717" transform="translate(165.2734375,206.8046875)"/>
<path d="M0 0 C1.25159912 0.00523682 2.50319824 0.01047363 3.79272461 0.01586914 C4.78942421 0.01799156 4.78942421 0.01799156 5.80625916 0.02015686 C7.93590735 0.02577021 10.06545175 0.03832485 12.19506836 0.05102539 C13.63582205 0.05603868 15.07657739 0.06060188 16.51733398 0.06469727 C20.05581794 0.07489463 23.59407649 0.09446709 27.13256836 0.11352539 C27.13256836 7.70352539 27.13256836 15.29352539 27.13256836 23.11352539 C16.90256836 23.11352539 6.67256836 23.11352539 -3.86743164 23.11352539 C-3.88805664 19.50415039 -3.90868164 15.89477539 -3.92993164 12.17602539 C-3.93903564 11.03657471 -3.94813965 9.89712402 -3.95751953 8.72314453 C-3.96001709 7.83232178 -3.96251465 6.94149902 -3.96508789 6.02368164 C-3.97032471 5.10723877 -3.97556152 4.1907959 -3.98095703 3.24658203 C-3.80471884 -0.06480094 -3.36426409 0.13319564 0 0 Z " fill="#EFEFEF" transform="translate(238.867431640625,100.886474609375)"/>
<path d="M0 0 C4.875 0.875 4.875 0.875 6 2 C6.1875 4.4375 6.1875 4.4375 6 7 C5.34 7.66 4.68 8.32 4 9 C2.906875 8.979375 1.81375 8.95875 0.6875 8.9375 C-3.30786882 9.00521812 -4.78054943 9.79237675 -8 12 C-8.66 12 -9.32 12 -10 12 C-10.21282289 14.84050318 -10.21282289 14.84050318 -9 18 C-3.99787125 22.14523303 0.53985018 23.39551938 7 23 C9 25 9 25 9.25 27.5 C9 30 9 30 7 32 C4.5 32.25 4.5 32.25 2 32 C1.34 31.34 0.68 30.68 0 30 C0 28.68 0 27.36 0 26 C-0.886875 25.731875 -1.77375 25.46375 -2.6875 25.1875 C-6 24 -6 24 -8.375 22.375 C-11.15459165 20.91902342 -12.10437789 20.90264956 -15.125 21.0625 C-19 21 -19 21 -21 19.3125 C-22.17817092 16.58797975 -22.45181189 14.93677726 -22 12 C-20.7421875 10.34375 -20.7421875 10.34375 -19 9 C-16.984375 8.84765625 -16.984375 8.84765625 -14.75 9.0625 C-9.61266681 9.22983984 -7.12980842 8.05605823 -3 5 C-1.06305417 2.41796279 -1.06305417 2.41796279 0 0 Z " fill="#F1F1F1" transform="translate(459,186)"/>
<path d="M0 0 C0.78503906 0.433125 1.57007813 0.86625 2.37890625 1.3125 C8.25771238 4.42862791 12.34775419 6.57845616 19 6 C21 8 21 8 21.25 10.5 C21 13 21 13 19 15 C16.5 15.25 16.5 15.25 14 15 C13.34 14.34 12.68 13.68 12 13 C12 11.68 12 10.36 12 9 C11.175 8.7525 10.35 8.505 9.5 8.25 C5.47626529 6.81295189 1.78020976 4.97645485 -2 3 C-1.34 2.01 -0.68 1.02 0 0 Z " fill="#D9D9D9" transform="translate(447,203)"/>
<path d="M0 0 C4.875 0.875 4.875 0.875 6 2 C6.1875 4.4375 6.1875 4.4375 6 7 C5.34 7.66 4.68 8.32 4 9 C1.66666667 9 -0.66666667 9 -3 9 C-5.35369807 9.88064927 -5.35369807 9.88064927 -7 11 C-7 9.68 -7 8.36 -7 7 C-6.401875 6.773125 -5.80375 6.54625 -5.1875 6.3125 C-2.43648112 4.66188867 -1.47515363 2.8027919 0 0 Z " fill="#D6D6D6" transform="translate(459,186)"/>
<path d="M0 0 C1.65 0 3.3 0 5 0 C5.625 1.875 5.625 1.875 6 4 C5.34 4.66 4.68 5.32 4 6 C1.375 5.625 1.375 5.625 -1 5 C-0.67 3.35 -0.34 1.7 0 0 Z " fill="#212121" transform="translate(441,198)"/>
<path d="M0 0 C2.475 0.99 2.475 0.99 5 2 C1.25 4 1.25 4 -1 4 C-1.66 5.32 -2.32 6.64 -3 8 C-3.36923077 3.44615385 -3.36923077 3.44615385 -1.5 1.1875 C-1.005 0.795625 -0.51 0.40375 0 0 Z " fill="#D8D8D8" transform="translate(440,195)"/>
</svg>
